<svg width="1386" height="1352" viewBox="0 0 1386 1352" fill="none" xmlns="http://www.w3.org/2000/svg">
<rect width="1386" height="1352" fill="#929292"/>
<path d="M508 670C564.891 670 611 716.333 611 773.5C611 830.667 564.891 877 508 877C451.109 877 405 830.667 405 773.5C405 716.333 451.109 670 508 670Z" fill="#1E1E1E"/>
<path d="M1201 670C1257.89 670 1304 716.333 1304 773.5C1304 830.667 1257.89 877 1201 877C1144.11 877 1098 830.667 1098 773.5C1098 716.333 1144.11 670 1201 670Z" fill="#1E1E1E"/>
<path d="M611 43C310.009 43 66 286.963 66 587.896V1306H256.015V587.896C256.015 391.945 415.011 232.978 611 232.978V43Z" fill="#1E1E1E"/>
<path d="M1304 43C1003.01 43 759 286.963 759 587.896V1306H949.015V587.896C949.015 391.945 1108.01 232.978 1304 232.978V43Z" fill="#1E1E1E"/>
</svg>
