
<!-- <svg xmlns="http://www.w3.org/2000/svg">
  <text y="32" font-size="32">👌</text>
</svg> -->
<svg width="1386" height="1352" viewBox="0 0 1386 1352" fill="none" xmlns="http://www.w3.org/2000/svg">
<path d="M683.259 1350.8C1056.05 1350.8 1358.26 1048.59 1358.26 675.798C1358.26 303.005 1056.05 0.797607 683.259 0.797607C310.467 0.797607 8.25903 303.005 8.25903 675.798C8.25903 1048.59 310.467 1350.8 683.259 1350.8Z" fill="#272727" stroke="#707070" stroke-linecap="round"/>
<path d="M499.568 213.879V1138.34" stroke="#C1C1C1" stroke-width="30" stroke-linecap="round"/>
<path d="M15.2368 649.6L691.355 485.877V865.877L1370.46 705.31" stroke="#F1F1F1" stroke-width="30" stroke-linecap="round"/>
<path d="M881.491 213.879V1138.34" stroke="#C1C1C1" stroke-width="30" stroke-linecap="round"/>
<path d="M690.53 1161.11C423.1 1161.11 205.53 943.537 205.53 676.108C205.531 656.886 206.667 637.68 208.93 618.591C209.03 617.743 208.785 619.744 208.93 618.591L177.858 626.007C177.747 627.098 178.023 625.034 177.889 626.427C176.334 642.648 175.534 659.317 175.534 676.107C175.524 802.484 221.978 924.454 306.054 1018.81C390.13 1113.16 505.961 1173.31 631.503 1187.81C757.046 1202.3 883.538 1170.14 986.907 1097.44C1090.28 1024.73 1163.31 916.56 1192.1 793.507L1158.98 801.899C1103.43 1008.55 914.468 1161.11 690.53 1161.11Z" fill="#6B6B6B"/>
<path d="M1205.53 676.109C1205.54 549.4 1158.83 427.136 1074.36 332.697C989.883 238.257 873.561 178.269 747.635 164.205C621.71 150.142 495.019 182.988 391.79 256.464C288.56 329.94 216.037 438.889 188.088 562.477L220.942 554.635C274.996 345.799 465.032 191.105 690.529 191.105C957.958 191.105 1175.53 408.675 1175.53 676.105C1175.53 696.388 1174.27 716.651 1171.75 736.777L1202.82 729.36C1204.63 711.667 1205.53 693.894 1205.53 676.109Z" fill="#6B6B6B"/>
</svg>
