<svg width="1633" height="329" viewBox="0 0 1633 329" fill="none" xmlns="http://www.w3.org/2000/svg">
<path d="M87.127 123.857C98.369 123.857 107.481 132.972 107.481 144.22C107.481 155.467 98.369 164.583 87.127 164.583C75.8849 164.583 66.7734 155.467 66.7734 144.22C66.7734 132.972 75.8849 123.857 87.127 123.857Z" fill="#1E1E1E"/>
<path d="M223.979 123.857C235.221 123.857 244.332 132.972 244.332 144.22C244.332 155.467 235.221 164.583 223.979 164.583C212.737 164.583 203.625 155.467 203.625 144.22C203.625 132.972 212.737 123.857 223.979 123.857Z" fill="#1E1E1E"/>
<path d="M1236.44 27.8462C1247.69 27.8462 1256.8 36.962 1256.8 48.2093C1256.8 59.4566 1247.69 68.5724 1236.44 68.5724C1225.2 68.5724 1216.09 59.4566 1216.09 48.2093C1216.09 36.962 1225.2 27.8462 1236.44 27.8462Z" fill="#1E1E1E"/>
<path d="M651.584 207.305C662.826 207.305 671.938 216.42 671.938 227.668C671.938 238.915 662.826 248.031 651.584 248.031C640.342 248.031 631.23 238.915 631.23 227.668C631.23 216.42 640.342 207.305 651.584 207.305Z" fill="#1E1E1E"/>
<path d="M107.525 0C48.1413 0 0 48.1639 0 107.575V249.346H37.4886V107.575C37.4886 68.8899 68.8575 37.5062 107.525 37.5062V0Z" fill="#1E1E1E"/>
<path d="M244.333 0C184.95 0 136.809 48.1639 136.809 107.575V249.346H174.297V107.575C174.297 68.8899 205.666 37.5062 244.333 37.5062V0Z" fill="#1E1E1E"/>
<path d="M373.752 226.398H372.8C367.36 234.924 360.515 241.137 352.175 244.992C343.834 248.847 334.677 250.797 324.704 250.797C317.814 250.797 311.105 249.845 304.532 247.985C297.959 246.126 292.157 243.314 287.034 239.55C281.912 235.786 277.832 231.114 274.704 225.491C271.576 219.867 270.035 213.291 270.035 205.808C270.035 197.69 271.486 190.751 274.387 185.037C277.288 179.322 281.187 174.515 286.082 170.66C290.978 166.805 296.644 163.721 303.127 161.454C309.564 159.141 316.273 157.463 323.299 156.283C330.28 155.15 337.306 154.424 344.378 154.106C351.449 153.789 358.113 153.653 364.369 153.653H373.752V149.571C373.752 140.183 370.534 133.154 364.051 128.483C357.614 123.811 349.364 121.453 339.391 121.453C331.458 121.453 324.07 122.859 317.225 125.671C310.334 128.483 304.441 132.292 299.41 137.054L279.736 117.371C288.077 108.845 297.823 102.677 308.929 98.913C320.08 95.1487 331.594 93.2893 343.426 93.2893C354.033 93.2893 363.009 94.5138 370.307 96.8721C377.605 99.2758 383.634 102.36 388.439 106.079C393.244 109.843 396.916 114.151 399.545 119.049C402.129 123.947 404.033 128.891 405.166 133.879C406.3 138.868 406.98 143.721 407.206 148.392C407.433 153.063 407.524 157.19 407.524 160.728V246.988H373.797V226.352L373.752 226.398ZM371.576 179.866H363.779C358.566 179.866 352.719 180.093 346.282 180.501C339.845 180.91 333.725 181.907 328.013 183.449C322.302 185.037 317.451 187.304 313.507 190.343C309.564 193.381 307.569 197.599 307.569 202.996C307.569 206.534 308.34 209.527 309.926 211.885C311.468 214.289 313.507 216.33 316.001 217.962C318.494 219.64 321.304 220.819 324.432 221.545C327.56 222.271 330.688 222.634 333.816 222.634C346.735 222.634 356.254 219.55 362.374 213.427C368.539 207.305 371.576 198.914 371.576 188.257V179.821V179.866Z" fill="#1E1E1E"/>
<path d="M447.777 97.0082H483.407V121.09H484.042C487.578 113.562 492.972 107.076 500.27 101.543C507.569 96.0104 517.451 93.2439 529.962 93.2439C539.98 93.2439 548.457 94.922 555.438 98.2327C562.419 101.543 568.085 105.943 572.482 111.339C576.834 116.782 579.962 122.995 581.866 130.07C583.724 137.145 584.676 144.537 584.676 152.247V246.942H547.188V171.023C547.188 166.85 546.961 162.224 546.553 157.1C546.145 151.975 545.057 147.213 543.289 142.723C541.521 138.233 538.756 134.514 534.994 131.476C531.231 128.483 526.154 126.941 519.672 126.941C513.19 126.941 508.158 127.984 503.897 130.07C499.636 132.156 496.1 134.968 493.289 138.505C490.479 142.043 488.439 146.124 487.215 150.705C485.946 155.286 485.357 160.093 485.357 165.082V246.942H447.868V97.0082H447.777Z" fill="#1E1E1E"/>
<path d="M829.599 224.538H828.965C823.57 233.699 816.272 240.366 807.115 244.539C797.959 248.711 788.076 250.797 777.424 250.797C765.774 250.797 755.393 248.756 746.327 244.72C737.261 240.638 729.509 235.06 723.072 227.985C716.635 220.91 711.694 212.565 708.385 202.996C705.03 193.427 703.398 183.086 703.398 172.066C703.398 161.045 705.166 150.705 708.702 141.136C712.238 131.566 717.179 123.222 723.525 116.147C729.872 109.072 737.533 103.494 746.463 99.4118C755.393 95.3301 765.184 93.3346 775.837 93.3346C782.909 93.3346 789.164 94.0603 794.559 95.5115C799.953 96.9628 804.758 98.8676 808.929 101.135C813.099 103.448 816.635 105.852 819.536 108.482C822.437 111.113 824.84 113.652 826.698 116.147H827.65V10.7484H865.139V247.033H829.509V224.538H829.599ZM740.887 172.021C740.887 177.871 741.884 183.495 743.834 188.892C745.828 194.334 748.729 199.096 752.582 203.268C756.436 207.441 761.059 210.751 766.499 213.246C771.893 215.74 778.058 217.01 784.949 217.01C791.839 217.01 797.959 215.74 803.398 213.246C808.793 210.751 813.462 207.441 817.315 203.268C821.168 199.096 824.069 194.334 826.064 188.892C828.058 183.449 829.01 177.871 829.01 172.021C829.01 166.17 828.013 160.546 826.064 155.15C824.069 149.753 821.168 144.945 817.315 140.773C813.462 136.601 808.838 133.29 803.398 130.75C797.959 128.256 791.839 126.986 784.949 126.986C778.058 126.986 771.939 128.256 766.499 130.75C761.059 133.244 756.436 136.601 752.582 140.773C748.729 144.945 745.828 149.753 743.834 155.15C741.839 160.592 740.887 166.215 740.887 172.021Z" fill="#1E1E1E"/>
<path d="M929.1 185.127C930.323 196.375 934.721 205.128 942.2 211.386C949.68 217.645 958.746 220.774 969.399 220.774C978.782 220.774 986.624 218.824 992.971 214.969C999.317 211.114 1004.89 206.261 1009.7 200.456L1036.58 220.774C1027.83 231.613 1018.04 239.323 1007.2 243.904C996.37 248.484 985.038 250.797 973.161 250.797C961.919 250.797 951.312 248.938 941.293 245.174C931.275 241.409 922.663 236.103 915.364 229.255C908.066 222.361 902.309 214.107 898.048 204.402C893.787 194.697 891.656 183.948 891.656 172.066C891.656 160.184 893.787 149.39 898.048 139.73C902.309 130.025 908.066 121.77 915.364 114.877C922.663 107.983 931.275 102.677 941.293 98.913C951.312 95.1487 961.919 93.2893 973.161 93.2893C983.587 93.2893 993.107 95.1034 1001.76 98.7769C1010.42 102.405 1017.81 107.666 1023.93 114.559C1030.1 121.453 1034.86 129.934 1038.3 140.047C1041.75 150.161 1043.47 161.771 1043.47 174.878V185.173H929.1V185.127ZM1005.94 156.964C1005.71 145.943 1002.31 137.235 995.645 130.841C988.982 124.492 979.734 121.317 967.857 121.317C956.615 121.317 947.73 124.537 941.157 130.977C934.585 137.462 930.595 146.079 929.145 156.918H1005.98L1005.94 156.964Z" fill="#1E1E1E"/>
<path d="M1158.38 138.596C1151.08 128.392 1141.29 123.267 1129.01 123.267C1124.02 123.267 1119.13 124.537 1114.32 127.031C1109.52 129.526 1107.16 133.607 1107.16 139.231C1107.16 143.812 1109.15 147.168 1113.1 149.208C1117.04 151.295 1122.03 153.063 1128.1 154.515C1134.13 155.966 1140.66 157.508 1147.64 159.05C1154.62 160.637 1161.1 162.995 1167.18 166.261C1173.21 169.481 1178.19 173.925 1182.18 179.549C1186.13 185.173 1188.12 192.883 1188.12 202.679C1188.12 211.613 1186.17 219.187 1182.36 225.355C1178.51 231.523 1173.52 236.466 1167.36 240.185C1161.19 243.949 1154.3 246.625 1146.6 248.303C1138.89 249.981 1131.18 250.797 1123.48 250.797C1111.83 250.797 1101.08 249.119 1091.29 245.808C1081.5 242.498 1072.75 236.421 1065.05 227.668L1090.02 204.221C1094.83 209.663 1099.95 214.062 1105.48 217.509C1111.01 220.955 1117.72 222.679 1125.65 222.679C1128.37 222.679 1131.18 222.361 1134.09 221.726C1136.99 221.092 1139.71 220.048 1142.2 218.597C1144.69 217.146 1146.73 215.332 1148.27 213.11C1149.86 210.933 1150.63 208.393 1150.63 205.445C1150.63 200.23 1148.64 196.375 1144.69 193.88C1140.75 191.386 1135.72 189.345 1129.69 187.803C1123.66 186.216 1117.13 184.81 1110.15 183.449C1103.17 182.089 1096.69 179.912 1090.61 176.873C1084.58 173.88 1079.55 169.617 1075.61 164.22C1071.67 158.823 1069.67 151.295 1069.67 141.725C1069.67 133.381 1071.39 126.17 1074.84 120.002C1078.28 113.834 1082.82 108.8 1088.44 104.854C1094.06 100.908 1100.5 97.9606 1107.79 96.1011C1115.09 94.2417 1122.48 93.2893 1129.96 93.2893C1139.98 93.2893 1149.86 95.0127 1159.65 98.4594C1169.44 101.906 1177.33 107.802 1183.41 116.101L1158.43 138.596H1158.38Z" fill="#1E1E1E"/>
<path d="M1255.21 97.0082H1217.72V247.033H1255.21V97.0082Z" fill="#1E1E1E"/>
<path d="M1452.62 97.0082V233.563C1452.62 247.078 1450.95 259.323 1447.64 270.299C1444.28 281.228 1439.16 290.48 1432.18 298.099C1425.2 305.719 1416.41 311.569 1405.8 315.741C1395.19 319.914 1382.59 322 1367.99 322C1353.4 322 1340.79 320.231 1328.33 316.694C1315.82 313.156 1304.26 306.671 1293.65 297.328L1316.13 266.716C1323.66 273.609 1331.46 278.915 1339.57 282.634C1347.68 286.399 1357.07 288.258 1367.67 288.258C1376.6 288.258 1384.18 286.988 1390.34 284.494C1396.51 281.999 1401.36 278.553 1405.03 274.199C1408.65 269.845 1411.28 264.539 1412.82 258.416C1414.41 252.248 1415.18 245.446 1415.18 237.963V227.033H1414.55C1409.11 234.334 1401.94 239.822 1393.01 243.45C1384.04 247.078 1374.88 248.938 1365.54 248.938C1354.3 248.938 1344.1 246.897 1334.95 242.861C1325.79 238.779 1317.9 233.337 1311.37 226.443C1304.8 219.55 1299.77 211.432 1296.23 202.044C1292.7 192.656 1290.93 182.678 1290.93 172.021C1290.93 161.363 1292.61 150.66 1295.92 141.09C1299.23 131.521 1304.12 123.176 1310.6 116.101C1317.04 109.026 1324.84 103.448 1333.86 99.3665C1342.88 95.2848 1353.26 93.2893 1364.95 93.2893C1375.56 93.2893 1385.44 95.3755 1394.65 99.5479C1403.8 103.72 1411.1 110.387 1416.5 119.548H1417.13V97.0535H1452.76H1452.62V97.0082ZM1372.66 126.941C1366 126.941 1359.97 128.029 1354.53 130.206C1349.09 132.383 1344.47 135.421 1340.61 139.276C1336.76 143.131 1333.72 147.803 1331.55 153.335C1329.37 158.868 1328.28 164.946 1328.28 171.612C1328.28 177.644 1329.37 183.268 1331.55 188.483C1333.72 193.699 1336.8 198.279 1340.75 202.225C1344.69 206.171 1349.41 209.3 1354.8 211.613C1360.2 213.926 1366.04 215.06 1372.3 215.06C1379.19 215.06 1385.35 213.926 1390.88 211.613C1396.41 209.3 1401.08 206.261 1404.94 202.406C1408.79 198.552 1411.74 193.926 1413.82 188.483C1415.91 183.086 1416.95 177.236 1416.95 170.977C1416.95 157.871 1413.01 147.213 1405.07 139.095C1397.14 130.977 1386.35 126.895 1372.57 126.895H1372.66V126.941Z" fill="#1E1E1E"/>
<path d="M1495 97.0082H1530.63V121.09H1531.26C1534.8 113.562 1540.19 107.076 1547.49 101.543C1554.79 96.0104 1564.67 93.2439 1577.18 93.2439C1587.2 93.2439 1595.68 94.922 1602.66 98.2327C1609.64 101.543 1615.31 105.943 1619.7 111.339C1624.1 116.736 1627.18 122.995 1629.09 130.07C1630.99 137.145 1631.9 144.537 1631.9 152.247V246.942H1594.41V171.023C1594.41 166.85 1594.18 162.224 1593.78 157.1C1593.37 151.975 1592.28 147.213 1590.51 142.723C1588.74 138.233 1585.98 134.514 1582.22 131.476C1578.45 128.483 1573.38 126.941 1566.89 126.941C1560.41 126.941 1555.38 127.984 1551.12 130.07C1546.86 132.156 1543.32 134.968 1540.51 138.505C1537.7 142.043 1535.66 146.124 1534.44 150.705C1533.17 155.286 1532.58 160.093 1532.58 165.082V246.942H1495.09V97.0082H1495Z" fill="#1E1E1E"/>
<path d="M10.1221 318.88C11.1865 318.88 12.0508 318.763 12.7148 318.528C13.9746 318.079 14.6045 317.244 14.6045 316.023C14.6045 315.311 14.292 314.759 13.667 314.368C13.042 313.987 12.0605 313.65 10.7227 313.357L8.4375 312.845C6.19141 312.337 4.63867 311.785 3.7793 311.189C2.32422 310.193 1.59668 308.636 1.59668 306.517C1.59668 304.583 2.2998 302.977 3.70605 301.697C5.1123 300.418 7.17773 299.778 9.90234 299.778C12.1777 299.778 14.1162 300.384 15.7178 301.595C17.3291 302.796 18.1738 304.544 18.252 306.839H13.916C13.8379 305.54 13.2715 304.617 12.2168 304.07C11.5137 303.709 10.6396 303.528 9.59473 303.528C8.43262 303.528 7.50488 303.763 6.81152 304.231C6.11816 304.7 5.77148 305.354 5.77148 306.194C5.77148 306.966 6.11328 307.542 6.79688 307.923C7.23633 308.177 8.17383 308.475 9.60938 308.816L13.3301 309.71C14.9609 310.101 16.1914 310.623 17.0215 311.277C18.3105 312.293 18.9551 313.763 18.9551 315.687C18.9551 317.659 18.1982 319.3 16.6846 320.608C15.1807 321.907 13.0518 322.557 10.2979 322.557C7.48535 322.557 5.27344 321.917 3.66211 320.638C2.05078 319.349 1.24512 317.581 1.24512 315.335H5.55176C5.68848 316.321 5.95703 317.059 6.35742 317.547C7.08984 318.436 8.34473 318.88 10.1221 318.88ZM31.2148 314.236H26.6299V322H22.1475V300.408H31.5518C33.7197 300.408 35.4482 300.965 36.7373 302.078C38.0264 303.191 38.6709 304.915 38.6709 307.249C38.6709 309.798 38.0264 311.6 36.7373 312.654C35.4482 313.709 33.6074 314.236 31.2148 314.236ZM33.3242 309.739C33.9102 309.222 34.2031 308.401 34.2031 307.278C34.2031 306.155 33.9053 305.354 33.3096 304.876C32.7236 304.397 31.8984 304.158 30.834 304.158H26.6299V310.516H30.834C31.8984 310.516 32.7285 310.257 33.3242 309.739ZM56.834 312.566H46.3457V318.118H58.2988V322H41.9365V300.408H57.7715V304.231H46.3457V308.816H56.834V312.566ZM76.5938 312.566H66.1055V318.118H78.0586V322H61.6963V300.408H77.5312V304.231H66.1055V308.816H76.5938V312.566ZM90.626 322H81.3242V300.408H90.626C91.9639 300.428 93.0771 300.584 93.9658 300.877C95.4795 301.375 96.7051 302.288 97.6426 303.616C98.3945 304.69 98.9072 305.853 99.1807 307.103C99.4541 308.353 99.5908 309.544 99.5908 310.677C99.5908 313.548 99.0146 315.979 97.8623 317.972C96.2998 320.657 93.8877 322 90.626 322ZM93.9805 305.916C93.2871 304.744 91.915 304.158 89.8643 304.158H85.7041V318.25H89.8643C91.9932 318.25 93.4775 317.2 94.3174 315.101C94.7764 313.948 95.0059 312.576 95.0059 310.984C95.0059 308.787 94.6641 307.098 93.9805 305.916Z" fill="#313030"/>
<path d="M345.059 313.68V300.408H349.644V313.68C349.644 315.975 349.287 317.762 348.574 319.041C347.246 321.385 344.712 322.557 340.972 322.557C337.231 322.557 334.692 321.385 333.354 319.041C332.642 317.762 332.285 315.975 332.285 313.68V300.408H336.87V313.68C336.87 315.164 337.046 316.248 337.397 316.932C337.944 318.143 339.136 318.748 340.972 318.748C342.798 318.748 343.984 318.143 344.531 316.932C344.883 316.248 345.059 315.164 345.059 313.68ZM362.885 314.236H358.3V322H353.817V300.408H363.222C365.39 300.408 367.118 300.965 368.407 302.078C369.696 303.191 370.341 304.915 370.341 307.249C370.341 309.798 369.696 311.6 368.407 312.654C367.118 313.709 365.277 314.236 362.885 314.236ZM364.994 309.739C365.58 309.222 365.873 308.401 365.873 307.278C365.873 306.155 365.575 305.354 364.979 304.876C364.394 304.397 363.568 304.158 362.504 304.158H358.3V310.516H362.504C363.568 310.516 364.398 310.257 364.994 309.739Z" fill="#313030"/>
<path d="M620.717 300.408L613.495 313.885V322H608.983V313.885L601.513 300.408H606.83L611.312 309.812L615.604 300.408H620.717ZM632.596 322.601C629.51 322.601 627.151 321.761 625.521 320.081C623.333 318.021 622.239 315.052 622.239 311.175C622.239 307.22 623.333 304.251 625.521 302.269C627.151 300.589 629.51 299.749 632.596 299.749C635.682 299.749 638.04 300.589 639.671 302.269C641.849 304.251 642.938 307.22 642.938 311.175C642.938 315.052 641.849 318.021 639.671 320.081C638.04 321.761 635.682 322.601 632.596 322.601ZM636.858 316.8C637.903 315.481 638.426 313.606 638.426 311.175C638.426 308.753 637.898 306.883 636.844 305.564C635.799 304.236 634.383 303.572 632.596 303.572C630.809 303.572 629.383 304.231 628.318 305.55C627.254 306.868 626.722 308.743 626.722 311.175C626.722 313.606 627.254 315.481 628.318 316.8C629.383 318.118 630.809 318.777 632.596 318.777C634.383 318.777 635.804 318.118 636.858 316.8ZM658.918 313.68V300.408H663.503V313.68C663.503 315.975 663.146 317.762 662.434 319.041C661.105 321.385 658.571 322.557 654.831 322.557C651.091 322.557 648.552 321.385 647.214 319.041C646.501 317.762 646.145 315.975 646.145 313.68V300.408H650.729V313.68C650.729 315.164 650.905 316.248 651.257 316.932C651.804 318.143 652.995 318.748 654.831 318.748C656.657 318.748 657.844 318.143 658.391 316.932C658.742 316.248 658.918 315.164 658.918 313.68ZM676.744 313.533H672.086V322H667.677V300.408H678.268C679.781 300.438 680.943 300.623 681.754 300.965C682.574 301.307 683.268 301.81 683.834 302.474C684.303 303.021 684.674 303.626 684.947 304.29C685.221 304.954 685.357 305.711 685.357 306.561C685.357 307.586 685.099 308.597 684.581 309.593C684.063 310.579 683.209 311.277 682.018 311.688C683.014 312.088 683.717 312.659 684.127 313.401C684.547 314.134 684.757 315.257 684.757 316.771V318.221C684.757 319.207 684.796 319.876 684.874 320.228C684.991 320.784 685.265 321.194 685.694 321.458V322H680.729C680.592 321.521 680.494 321.136 680.436 320.843C680.318 320.237 680.255 319.617 680.245 318.982L680.216 316.976C680.196 315.599 679.942 314.681 679.454 314.222C678.976 313.763 678.072 313.533 676.744 313.533ZM679.483 309.607C680.382 309.197 680.831 308.387 680.831 307.176C680.831 305.867 680.396 304.988 679.527 304.539C679.039 304.285 678.307 304.158 677.33 304.158H672.086V309.959H677.198C678.214 309.959 678.976 309.842 679.483 309.607Z" fill="#313030"/>
<path d="M917.934 300.408H922.416V322H917.934V300.408ZM935.687 322H926.385V300.408H935.687C937.024 300.428 938.138 300.584 939.026 300.877C940.54 301.375 941.766 302.288 942.703 303.616C943.455 304.69 943.968 305.853 944.241 307.103C944.515 308.353 944.651 309.544 944.651 310.677C944.651 313.548 944.075 315.979 942.923 317.972C941.36 320.657 938.948 322 935.687 322ZM939.041 305.916C938.348 304.744 936.976 304.158 934.925 304.158H930.765V318.25H934.925C937.054 318.25 938.538 317.2 939.378 315.101C939.837 313.948 940.066 312.576 940.066 310.984C940.066 308.787 939.725 307.098 939.041 305.916ZM962.844 312.566H952.355V318.118H964.309V322H947.946V300.408H963.781V304.231H952.355V308.816H962.844V312.566ZM980.216 317.562H972.262L970.768 322H966.051L973.756 300.408H978.854L986.5 322H981.607L980.216 317.562ZM978.956 313.841L976.261 305.345L973.478 313.841H978.956ZM996.841 318.88C997.905 318.88 998.77 318.763 999.434 318.528C1000.69 318.079 1001.32 317.244 1001.32 316.023C1001.32 315.311 1001.01 314.759 1000.39 314.368C999.761 313.987 998.779 313.65 997.441 313.357L995.156 312.845C992.91 312.337 991.357 311.785 990.498 311.189C989.043 310.193 988.315 308.636 988.315 306.517C988.315 304.583 989.019 302.977 990.425 301.697C991.831 300.418 993.896 299.778 996.621 299.778C998.896 299.778 1000.83 300.384 1002.44 301.595C1004.05 302.796 1004.89 304.544 1004.97 306.839H1000.63C1000.56 305.54 999.99 304.617 998.936 304.07C998.232 303.709 997.358 303.528 996.313 303.528C995.151 303.528 994.224 303.763 993.53 304.231C992.837 304.7 992.49 305.354 992.49 306.194C992.49 306.966 992.832 307.542 993.516 307.923C993.955 308.177 994.893 308.475 996.328 308.816L1000.05 309.71C1001.68 310.101 1002.91 310.623 1003.74 311.277C1005.03 312.293 1005.67 313.763 1005.67 315.687C1005.67 317.659 1004.92 319.3 1003.4 320.608C1001.9 321.907 999.771 322.557 997.017 322.557C994.204 322.557 991.992 321.917 990.381 320.638C988.77 319.349 987.964 317.581 987.964 315.335H992.271C992.407 316.321 992.676 317.059 993.076 317.547C993.809 318.436 995.063 318.88 996.841 318.88Z" fill="#313030"/>
<path d="M1253.97 300.408V304.231H1247.51V322H1242.97V304.231H1236.48V300.408H1253.97ZM1265.4 322.601C1262.31 322.601 1259.95 321.761 1258.32 320.081C1256.14 318.021 1255.04 315.052 1255.04 311.175C1255.04 307.22 1256.14 304.251 1258.32 302.269C1259.95 300.589 1262.31 299.749 1265.4 299.749C1268.48 299.749 1270.84 300.589 1272.47 302.269C1274.65 304.251 1275.74 307.22 1275.74 311.175C1275.74 315.052 1274.65 318.021 1272.47 320.081C1270.84 321.761 1268.48 322.601 1265.4 322.601ZM1269.66 316.8C1270.71 315.481 1271.23 313.606 1271.23 311.175C1271.23 308.753 1270.7 306.883 1269.65 305.564C1268.6 304.236 1267.19 303.572 1265.4 303.572C1263.61 303.572 1262.19 304.231 1261.12 305.55C1260.06 306.868 1259.52 308.743 1259.52 311.175C1259.52 313.606 1260.06 315.481 1261.12 316.8C1262.19 318.118 1263.61 318.777 1265.4 318.777C1267.19 318.777 1268.61 318.118 1269.66 316.8Z" fill="#313030"/>
<path d="M1517.46 313.533H1512.8V322H1508.39V300.408H1518.98C1520.49 300.438 1521.65 300.623 1522.46 300.965C1523.29 301.307 1523.98 301.81 1524.54 302.474C1525.01 303.021 1525.38 303.626 1525.66 304.29C1525.93 304.954 1526.07 305.711 1526.07 306.561C1526.07 307.586 1525.81 308.597 1525.29 309.593C1524.77 310.579 1523.92 311.277 1522.73 311.688C1523.72 312.088 1524.43 312.659 1524.84 313.401C1525.26 314.134 1525.47 315.257 1525.47 316.771V318.221C1525.47 319.207 1525.51 319.876 1525.58 320.228C1525.7 320.784 1525.98 321.194 1526.41 321.458V322H1521.44C1521.3 321.521 1521.21 321.136 1521.15 320.843C1521.03 320.237 1520.97 319.617 1520.96 318.982L1520.93 316.976C1520.91 315.599 1520.65 314.681 1520.17 314.222C1519.69 313.763 1518.78 313.533 1517.46 313.533ZM1520.19 309.607C1521.09 309.197 1521.54 308.387 1521.54 307.176C1521.54 305.867 1521.11 304.988 1520.24 304.539C1519.75 304.285 1519.02 304.158 1518.04 304.158H1512.8V309.959H1517.91C1518.92 309.959 1519.69 309.842 1520.19 309.607ZM1544.74 312.566H1534.26V318.118H1546.21V322H1529.85V300.408H1545.68V304.231H1534.26V308.816H1544.74V312.566ZM1562.12 317.562H1554.16L1552.67 322H1547.95L1555.66 300.408H1560.75L1568.4 322H1563.51L1562.12 317.562ZM1560.86 313.841L1558.16 305.345L1555.38 313.841H1560.86ZM1570.9 300.408H1575.42V318.118H1586.11V322H1570.9V300.408ZM1588.64 300.408H1593.12V322H1588.64V300.408ZM1612.78 300.408V304.231H1606.32V322H1601.78V304.231H1595.29V300.408H1612.78ZM1632.62 300.408L1625.39 313.885V322H1620.88V313.885L1613.41 300.408H1618.73L1623.21 309.812L1627.5 300.408H1632.62Z" fill="#313030"/>
</svg>
