<svg width="39" height="40" viewBox="0 0 39 40" fill="none" xmlns="http://www.w3.org/2000/svg">
<path d="M14 20C15.657 20 17 21.343 17 23C17 24.657 15.657 26 14 26C12.343 26 11 24.657 11 23C11 21.343 12.343 20 14 20Z" fill="#313030"/>
<path d="M36 20C37.657 20 39 21.343 39 23C39 24.657 37.657 26 36 26C34.343 26 33 24.657 33 23C33 21.343 34.343 20 36 20Z" fill="#313030"/>
<path d="M17 0C7.6113 0 0 7.72645 0 17.2572V40H5.92707V17.2572C5.92707 11.0513 10.8866 6.01673 17 6.01673V0Z" fill="#313030"/>
<path d="M39 0C29.6113 0 22 7.72645 22 17.2572V40H27.9271V17.2572C27.9271 11.0513 32.8866 6.01673 39 6.01673V0Z" fill="#313030"/>
</svg>
